<?xml version="1.0" encoding="UTF-8"?>
<svg id="Layer_2" data-name="Layer 2" xmlns="http://www.w3.org/2000/svg" viewBox="0 0 31.21 24.54">
  <g id="Updates">
    <path d="M31.16,13.8c-.08-.5-.59-.93-1.05-1.05C20.18,10.13,10.77,5.91,2.2.25.58-.81-.92,1.78.69,2.84c8.13,5.37,17.05,9.46,26.4,12.17-.19.05-.38.1-.57.15-1.11.31-2.23.6-3.35.9-2.31.62-4.62,1.24-6.93,1.86-4.54,1.22-9.09,2.44-13.63,3.66-1.86.5-1.07,3.4.8,2.89,5.5-1.48,11-2.96,16.5-4.43,2.67-.72,5.4-1.33,8.04-2.16,1.93-.61,3.57-1.88,3.21-4.08Z"/>
  </g>
</svg>