<?xml version="1.0" encoding="UTF-8"?>
<svg id="Layer_2" xmlns="http://www.w3.org/2000/svg" version="1.1" viewBox="0 0 536.26 14.96">
  <!-- Generator: Adobe Illustrator 29.5.1, SVG Export Plug-In . SVG Version: 2.1.0 Build 141)  -->
  <g id="Publications.Sidebar">
    <path d="M5.78,11.93c17.06-1.02,34.15-1.87,51.22-2.56,17.17-.69,34.33-1.23,51.5-1.63,17.09-.4,34.18-.67,51.27-.83,17.09-.16,34.19-.21,51.28-.19,17.18.03,34.37.14,51.55.31,17.19.17,34.2.39,51.31.65,17.11.26,34.21.55,51.32.84,17.19.3,34.38.6,51.57.89s34.21.56,51.32.78c17.1.23,34.21.41,51.31.53,4.23.03,8.47.05,12.7.07,1.93.01,1.83-2.99-.11-3-17.1-.08-34.21-.24-51.31-.44-17.1-.2-34.38-.46-51.57-.74-17.19-.28-34.21-.58-51.32-.88-17.1-.3-34.21-.6-51.32-.87s-34.38-.52-51.57-.71c-17.19-.19-34.2-.34-51.31-.41s-34.19-.06-51.29.05c-17.18.11-34.35.32-51.53.66s-34.17.8-51.25,1.41c-17.09.61-34.16,1.38-51.23,2.31-4.22.23-8.46.48-12.68.73-1.93.12-1.82,3.12.11,3h0v.03Z"/>
  </g>
</svg>