<?xml version="1.0" encoding="UTF-8"?>
<svg id="Layer_2" data-name="Layer 2" xmlns="http://www.w3.org/2000/svg" viewBox="0 0 105.1 85.73">
  <g id="Publications">
    <g id="Publications.Header">
      <path d="M30.94,5.66l-.48,13.78-.23,6.4c-.04,1.15-.07,2.3-.12,3.44-.03.65.08,1.27-.64,1.47-.5.14-1.23-.13-1.72-.22-8.94-1.62-17.88-3.25-26.82-4.87-.76-.14-1.21.66-.73,1.25,3.08,3.77,8.31,5.14,12.7,6.73,5.43,1.97,10.9,3.81,16.4,5.54l-.45-1.1c-5.46,10.42-10.91,20.83-16.37,31.25-.39.75.55,1.51,1.18.91,9.68-9.2,19.36-18.4,29.04-27.6l-1.25-.33c2.83,7.47,5.74,14.9,8.73,22.31,2.83,6.98,5.37,14.37,9.43,20.75.29.45,1.02.52,1.3,0,6.24-11.99-.18-25.16-2.38-37.28l-1.25.73c10.98,9.78,23.8,17.31,37.68,22.15.77.27,1.17-.73.73-1.25-9.2-11.01-19.75-20.75-30.29-30.44l-.33,1.25c13.34-4.18,26.91-8.02,39.55-14.07.76-.36.27-1.31-.38-1.4-9.07-1.2-18.19-2.01-27.32-2.4-4.53-.19-9.06-.28-13.59-.27-2.3,0-4.62.16-6.92.09-.62-.02-1.3.01-1.64-.59-.23-.41-.25-1-.28-1.44-.07-1.13-.09-2.26-.13-3.4-.19-5.21-.38-10.42-.57-15.63-.03-.85-1.21-1.01-1.47-.2-2.76,8.42-5.53,16.84-8.29,25.26l1.37-.18c-5.72-7.89-11.44-15.78-17.17-23.68-.56-.77-1.86-.03-1.3.76,5.72,7.89,11.44,15.78,17.17,23.68.38.52,1.16.47,1.37-.18,2.76-8.42,5.53-16.84,8.29-25.26l-1.47-.2c.18,4.96.36,9.92.54,14.89.07,1.88-.24,4.27.51,6.04.81,1.91,2.81,1.64,4.55,1.6,9.89-.2,19.78.08,29.64.85,5.59.43,11.16,1.02,16.71,1.76l-.38-1.4c-12.52,6-25.98,9.78-39.19,13.92-.52.16-.76.86-.33,1.25,10.54,9.69,21.09,19.43,30.29,30.44l.73-1.25c-13.63-4.75-26.24-12.17-37.02-21.76-.58-.52-1.39,0-1.25.73,2.11,11.63,8.52,24.61,2.53,36.13h1.3c-4.09-6.41-6.63-13.83-9.47-20.85s-5.78-14.54-8.55-21.85c-.2-.52-.82-.75-1.25-.33-9.68,9.2-19.36,18.4-29.04,27.6l1.18.91c5.46-10.42,10.91-20.83,16.37-31.25.23-.44.03-.95-.45-1.1-5.2-1.63-10.37-3.37-15.5-5.21-4.41-1.59-9.85-2.89-12.94-6.67l-.73,1.25c5.04.92,10.08,1.83,15.12,2.75,2.44.44,4.88.89,7.31,1.33,1.3.24,2.6.47,3.9.71.89.16,1.9.48,2.81.36,2.07-.26,1.91-2.34,1.97-3.95l.26-7.38.54-15.25c.03-.97-1.47-.96-1.5,0h0Z"/>
    </g>
  </g>
</svg>